<svg width="149" height="66" viewBox="0 0 149 66" fill="none" xmlns="http://www.w3.org/2000/svg">
<path d="M42.2228 64.36C41.9166 64.84 41.9305 65.26 42.2367 65.66C42.4734 65.98 44.8814 66 74.0278 66C104.385 66 105.568 65.98 105.777 65.64C106.083 65.16 106.069 64.74 105.763 64.34C105.527 64.02 103.119 64 73.9722 64C43.6147 64 42.4316 64.02 42.2228 64.36Z" fill="#E7E7E7"/>
<path d="M135.429 49.8199C135.429 49.8615 135.554 50.0554 135.706 50.2493C135.969 50.5817 135.983 50.8171 135.983 53.4903V56.385H136.745H137.493L137.535 54.2936L137.576 52.2022L139.487 54.2936L141.399 56.385H142.078H142.77V53.0471V49.723L142.05 49.7645L141.316 49.8061L141.246 51.8559L141.177 53.8919L139.266 51.8144L137.355 49.7368H136.385C135.859 49.7368 135.429 49.7784 135.429 49.8199Z" fill="#E7E7E7"/>
<path d="M122.784 49.7369C120 50.4432 118.906 53.2272 120.637 55.2078C121.468 56.1496 122.105 56.4266 123.601 56.4959C125.139 56.5651 126.067 56.3158 126.856 55.5956C127.756 54.7784 128.006 54.2382 128.006 53.1302C128.006 51.5928 127.382 50.6925 125.803 50C125.069 49.6814 123.56 49.5429 122.784 49.7369ZM124.668 50.8587C126.163 51.2742 126.814 53.1718 125.914 54.5291C125.374 55.374 123.754 55.6787 122.701 55.1385C121.274 54.4183 121.122 52.2022 122.424 51.2327C123.047 50.7618 123.864 50.6371 124.668 50.8587Z" fill="#E7E7E7"/>
<path d="M109.737 49.8753C109.695 49.9446 109.737 50.0554 109.861 50.0969C110.249 50.2493 110.36 51.011 110.36 53.698V56.385H111.122H111.884L111.856 53.0886L111.814 49.8061L110.817 49.7645C110.235 49.7368 109.792 49.7784 109.737 49.8753Z" fill="#E7E7E7"/>
<path d="M97.0221 49.8338C96.9667 49.8753 96.9252 50.1246 96.9252 50.3739V50.831L98.0055 50.8725L99.072 50.9141L99.1135 53.6426L99.1412 56.385H99.903H100.665V53.6149V50.8448H101.704H102.742V50.2908V49.7368H99.9307C98.3795 49.7368 97.0637 49.7784 97.0221 49.8338Z" fill="#E7E7E7"/>
<path d="M86.1357 49.9861C86.011 50.2216 84.3628 53.8365 83.5457 55.6509L83.2133 56.385H83.9612H84.723L85.0692 55.6232L85.4155 54.8615H86.8144H88.1994L88.5734 55.6232L88.9473 56.385H89.7507C90.1939 56.385 90.554 56.3296 90.554 56.2604C90.554 56.1496 89.9584 54.8615 88.421 51.6066L87.5207 49.7368H86.8975C86.4266 49.7368 86.2326 49.8061 86.1357 49.9861ZM87.2437 52.7146C87.4653 53.2133 87.6177 53.6842 87.5761 53.7534C87.5207 53.8365 87.1468 53.8919 86.7313 53.8919C86.1357 53.8919 85.9833 53.8504 85.9833 53.6703C85.9833 53.4349 86.6759 51.8144 86.7728 51.8144C86.8005 51.8144 87.0221 52.216 87.2437 52.7146Z" fill="#E7E7E7"/>
<path d="M72.6177 49.7784C71.7035 50.0278 71.1911 50.3048 70.6509 50.8726C70.0553 51.4959 69.7783 52.2023 69.7783 53.1302C69.7783 54.4599 70.3877 55.4294 71.6343 56.0804C72.2714 56.4266 72.4792 56.4543 73.8642 56.4543C74.8476 56.4543 75.5539 56.3851 75.8448 56.2604C76.2603 56.0804 76.288 56.025 76.288 55.4017V54.723L75.7063 55.0278C74.8753 55.471 73.0332 55.4848 72.4653 55.0555C71.7174 54.5014 71.5096 54.0859 71.5096 53.1302C71.5096 52.1469 71.7451 51.7037 72.5623 51.1496C72.9778 50.8588 73.1717 50.8311 74.0719 50.8726C74.806 50.9003 75.2769 51.0111 75.7063 51.2327L76.3019 51.5374L76.2603 50.8172C76.2188 50.097 76.2049 50.0832 75.6647 49.9031C74.8476 49.6399 73.4071 49.5845 72.6177 49.7784Z" fill="#E7E7E7"/>
<path d="M59.6676 49.8199C59.6676 49.8615 59.7923 50.0554 59.9446 50.2493C60.2078 50.5817 60.2216 50.8171 60.2216 53.4903V56.385H60.9834H61.7452V53.0609V49.7368H60.7064C60.1385 49.7368 59.6676 49.7784 59.6676 49.8199Z" fill="#E7E7E7"/>
<path d="M46.0664 49.8061C46.011 49.8615 46.0941 50.0692 46.2326 50.2631C46.4819 50.5817 46.5096 50.831 46.5096 53.4903V56.385H47.2714H48.0332L48.047 55.3047C48.0747 53.6288 48.0609 53.6842 48.4487 53.7257C48.8919 53.7673 49.5152 54.3767 50.2631 55.4986L50.8725 56.385H51.7451H52.6177L51.8975 55.3047C51.5096 54.723 50.9695 54.0166 50.7063 53.7396L50.2354 53.241L50.5817 53.0055C51.3988 52.4792 51.5512 51.3019 50.9002 50.5955C50.3047 49.9446 49.8614 49.8199 47.9639 49.7645C46.9806 49.7368 46.1218 49.7507 46.0664 49.8061ZM49.2797 51.0526C49.6121 51.2327 49.6952 51.3573 49.6952 51.7451C49.6952 52.313 49.2936 52.6454 48.6288 52.6454H48.1717V51.7451C48.1717 50.8725 48.1855 50.8448 48.5179 50.8448C48.7257 50.8448 49.0581 50.9418 49.2797 51.0526Z" fill="#E7E7E7"/>
<path d="M32.6177 49.8338C32.5623 49.9169 32.6454 50.0831 32.7977 50.2216C33.0609 50.457 33.0747 50.6648 33.0747 53.4349V56.385H34.9446C37.0083 56.385 37.59 56.2188 38.1856 55.4709C38.7534 54.7368 38.4349 53.241 37.6454 52.9917C37.3684 52.9086 37.3684 52.8947 37.6315 52.5623C38.2687 51.759 38.047 50.7063 37.1191 50.1246C36.6897 49.8615 36.385 49.8199 34.6675 49.7645C33.4487 49.723 32.6592 49.7507 32.6177 49.8338ZM36.1357 50.9833C36.3157 51.0803 36.3988 51.2742 36.3988 51.6066C36.3988 52.1883 35.9972 52.5069 35.2631 52.5069H34.7368V51.6759V50.8448H35.3047C35.6094 50.8448 35.9833 50.9141 36.1357 50.9833ZM36.2188 53.6149C36.7036 53.795 36.939 54.2243 36.8144 54.723C36.7036 55.1662 36.2188 55.4155 35.4016 55.4155H34.7368V54.446V53.4764H35.277C35.5678 53.4764 35.9972 53.5457 36.2188 53.6149Z" fill="#E7E7E7"/>
<path d="M20.9695 50.457C20.4294 51.6759 18.5042 55.8864 18.3657 56.1357C18.2549 56.3573 18.3241 56.385 19.0166 56.385H19.7784L20.1247 55.6232L20.4571 54.8615H21.8837H23.3103L23.6427 55.6232L23.9612 56.385H24.8615C25.651 56.385 25.7341 56.3573 25.6233 56.1357C25.554 56.011 25.3601 55.6094 25.1939 55.2493C25.0416 54.903 24.3767 53.518 23.7396 52.1745L22.5623 49.7368H21.9252C21.2881 49.7368 21.2881 49.7368 20.9695 50.457ZM22.313 52.7146C22.5208 53.1994 22.687 53.6703 22.687 53.7534C22.687 53.8365 22.3407 53.8919 21.856 53.8919C21.2881 53.8919 21.0249 53.8365 21.0249 53.7119C21.0249 53.4764 21.7452 51.8144 21.8421 51.8144C21.8837 51.8144 22.0914 52.216 22.313 52.7146Z" fill="#E7E7E7"/>
<path d="M6.48193 49.8199C6.48193 49.8615 6.60659 50.0554 6.75894 50.2493C7.0221 50.5817 7.03595 50.8171 7.03595 53.4903V56.385H7.79772C8.31019 56.385 8.5595 56.3296 8.57335 56.205C8.5872 56.1219 8.60105 55.5124 8.6149 54.8615L8.62875 53.6842L9.98609 53.6426L11.3296 53.6011V53.0609V52.5069H9.94454H8.54565L8.5872 51.7036L8.62875 50.9141L10.0553 50.8725L11.4819 50.831L11.4404 50.3185L11.3988 49.8061L8.94731 49.7645C7.58997 49.7507 6.48193 49.7645 6.48193 49.8199Z" fill="#E7E7E7"/>
<path d="M0 6C0 2.68629 2.68629 0 6 0H143C146.314 0 149 2.68629 149 6V39C149 42.3137 146.314 45 143 45H6C2.6863 45 0 42.3137 0 39V6Z" fill="#1C1A1B"/>
<path d="M72 9H140V37H72V9Z" fill="#DB864D"/>
<path d="M77.1191 22.6593C77.1191 27.4238 77.1191 31.3573 77.1191 31.4127C77.1191 31.482 78.144 31.5374 79.4044 31.5651L81.6897 31.5928V26.0249L81.7036 20.4432L82.4515 22.3823C82.8532 23.4488 83.8088 25.9418 84.5706 27.9224L85.9557 31.5236H87.0221H88.0886L89.1828 28.7535C90.3462 25.831 91.1219 23.8366 91.8421 21.8975L92.2853 20.7202L92.3545 26.1219L92.4238 31.5236H94.7091H96.9944L97.036 22.7562L97.0637 14.0028H93.8365H90.6094L90.2354 15C89.6953 16.5236 88.9058 18.5873 88.698 19.0582C88.5872 19.2798 88.2133 20.2493 87.8532 21.205C87.493 22.1607 87.1606 23.0194 87.1052 23.1163C87.0498 23.2133 86.6066 22.2299 86.0665 20.7618C85.5401 19.3629 84.7507 17.2715 84.2936 16.108L83.4626 14.0028H80.2908H77.1191V22.6593Z" fill="#1C1A1B"/>
<path d="M104.003 15.9695C103.587 17.0637 102.978 18.6981 102.645 19.6122C102.299 20.5263 101.884 21.6482 101.717 22.1053C101.537 22.5623 100.983 24.0582 100.471 25.4294C99.9584 26.8006 99.2382 28.6981 98.8643 29.6537C98.4903 30.6094 98.2271 31.4266 98.2548 31.482C98.2964 31.5513 99.4598 31.5928 100.859 31.5928H103.393L103.795 30.374L104.197 29.169L107.59 29.1274L110.997 29.0997L111.413 30.3047L111.828 31.5236L114.418 31.5651C117.299 31.6067 117.202 31.6344 116.787 30.651C116.454 29.8754 110.734 14.7368 110.568 14.169C110.526 14.0443 109.806 14.0028 107.618 14.0028H104.737L104.003 15.9695ZM108.283 20.5817C108.601 21.4959 108.906 22.4238 108.975 22.6593C109.03 22.8809 109.211 23.4765 109.377 23.9751C109.529 24.4598 109.64 24.8892 109.612 24.9031C109.571 24.9446 107.05 24.9723 105.831 24.9446C105.526 24.9446 105.554 24.8338 106.551 21.9391C107.119 20.277 107.59 18.892 107.59 18.8643C107.59 18.6565 107.784 19.1274 108.283 20.5817Z" fill="#1C1A1B"/>
<path d="M118.255 22.6593C118.255 27.4238 118.255 31.3573 118.255 31.4127C118.255 31.482 119.28 31.5374 120.54 31.5651L122.825 31.5928L122.853 26.6482L122.895 21.6898L123.795 22.9224C124.294 23.6011 125.776 25.6233 127.091 27.4238C128.407 29.2244 129.571 30.8033 129.681 30.9418C129.792 31.0665 129.889 31.2465 129.889 31.3158C129.889 31.5513 130.457 31.6067 132.521 31.5651L134.529 31.5236L134.571 22.7562L134.598 14.0028H132.244H129.889L129.861 18.6704L129.82 23.3518L129.349 22.6593C128.864 21.9668 125.014 16.759 123.781 15.1247C123.407 14.6399 123.102 14.1828 123.102 14.1274C123.102 14.0582 122.008 14.0028 120.679 14.0028H118.255V22.6593Z" fill="#1C1A1B"/>
<path d="M6.85594 6.13581C6.73128 6.23276 6.56508 6.49592 6.48198 6.70367C6.28807 7.24384 6.28807 37.6178 6.48198 38.1995C6.56508 38.435 6.78669 38.6843 6.98059 38.7812C7.24375 38.892 24.626 38.9336 74.6399 38.9336H141.953L142.285 38.5873L142.632 38.2549V22.4793C142.632 6.73138 142.632 6.70368 142.341 6.32972L142.064 5.9696H74.5706C20.8033 5.9696 7.03599 6.01115 6.85594 6.13581ZM139.003 22.4793L139.03 35.471H105.72H72.41V22.5486C72.41 15.4294 72.4515 9.57071 72.5069 9.52916C72.5485 9.47376 87.5208 9.44606 105.776 9.45991L138.961 9.50146L139.003 22.4793ZM25.3878 14.0859C28.5457 14.917 30.9418 17.2715 31.7728 20.3879C32.0637 21.4682 32.1052 23.8643 31.8421 24.9447C31.1219 27.9779 28.7534 30.471 25.7341 31.3713C23.8088 31.953 21.3435 31.9114 19.3629 31.2466C15.0692 29.82 12.687 25.4987 13.6149 20.8172C14.3352 17.2023 17.2853 14.4738 21.0942 13.8643C22.1883 13.6981 24.349 13.8089 25.3878 14.0859ZM40.9003 16.6621C44.6814 21.8283 45.831 23.3519 45.9418 23.3934C46.0111 23.4211 46.0665 21.3297 46.0803 18.7535L46.0942 14.0721L48.3102 14.0305L50.5263 14.0028V22.7286V31.4544H48.3518H46.1634L45.5263 30.5818C44.7507 29.5292 40.4847 23.6843 39.5983 22.4793L38.9612 21.5929L38.9197 26.5236L38.8919 31.4544H36.6066H34.3213V22.7286V14.0028H36.6482H38.9612L40.9003 16.6621ZM67.1468 16.0112V18.0195H62.9917H58.8365V19.3353V20.651L62.8947 20.6787L66.939 20.7203V22.6594V24.5984L62.8947 24.64L58.8365 24.6677V26.122V27.5763H62.9917H67.1468V29.5153V31.4544L60.7756 31.4267L54.4044 31.3851V22.7563C54.4044 18.0195 54.4044 14.1136 54.4044 14.0721C54.4044 14.0305 57.2714 14.0028 60.7756 14.0028H67.1468V16.0112Z" fill="#E7E7E7"/>
<path d="M21.4127 17.9363C20.6925 18.1302 19.7784 18.6842 19.2521 19.2521C17.9778 20.6233 17.6454 23.4765 18.5457 25.2493C19.4875 27.1053 21.482 28.0887 23.5457 27.7147C25.9141 27.2854 27.2437 25.651 27.3684 23.0333C27.4238 21.9529 27.3823 21.6067 27.1191 20.8865C26.2465 18.4765 23.9058 17.2715 21.4127 17.9363Z" fill="#E7E7E7"/>
<path fill-rule="evenodd" clip-rule="evenodd" d="M143 1H6C3.23858 1 1 3.23858 1 6V39C1 41.7614 3.23858 44 6 44H143C145.761 44 148 41.7614 148 39V6C148 3.23858 145.761 1 143 1ZM6 0C2.68629 0 0 2.68629 0 6V39C0 42.3137 2.6863 45 6 45H143C146.314 45 149 42.3137 149 39V6C149 2.68629 146.314 0 143 0H6Z" fill="#C48961"/>
</svg>
